<svg width="8" height="8" viewBox="0 0 8 8" fill="none" xmlns="http://www.w3.org/2000/svg">
<path d="M4 0.125C1.85938 0.125 0.125 1.85938 0.125 4C0.125 6.14062 1.85938 7.875 4 7.875C6.14062 7.875 7.875 6.14062 7.875 4C7.875 1.85938 6.14062 0.125 4 0.125ZM1.9375 4.625C1.83438 4.625 1.75 4.54063 1.75 4.4375V3.5625C1.75 3.45937 1.83438 3.375 1.9375 3.375H6.0625C6.16563 3.375 6.25 3.45937 6.25 3.5625V4.4375C6.25 4.54063 6.16563 4.625 6.0625 4.625H1.9375Z" fill="white"/>
<path d="M4 0.125C1.85938 0.125 0.125 1.85938 0.125 4C0.125 6.14062 1.85938 7.875 4 7.875C6.14062 7.875 7.875 6.14062 7.875 4C7.875 1.85938 6.14062 0.125 4 0.125ZM1.9375 4.625C1.83438 4.625 1.75 4.54063 1.75 4.4375V3.5625C1.75 3.45937 1.83438 3.375 1.9375 3.375H6.0625C6.16563 3.375 6.25 3.45937 6.25 3.5625V4.4375C6.25 4.54063 6.16563 4.625 6.0625 4.625H1.9375Z" fill="#E25C3D"/>
</svg>
