<svg width="20" height="16" viewBox="0 0 20 16" fill="none" xmlns="http://www.w3.org/2000/svg">
<path d="M13.6626 10.7785L14.6958 9.77852C14.8572 9.62227 15.1381 9.73164 15.1381 9.95664V14.5004C15.1381 15.3285 14.444 16.0004 13.5884 16.0004H2.22373C1.36816 16.0004 0.674011 15.3285 0.674011 14.5004V3.50039C0.674011 2.67227 1.36816 2.00039 2.22373 2.00039H11.0539C11.2832 2.00039 11.3994 2.26914 11.238 2.42852L10.2048 3.42852C10.1564 3.47539 10.0918 3.50039 10.0208 3.50039H2.22373V14.5004H13.5884V10.9535C13.5884 10.8879 13.6142 10.8254 13.6626 10.7785ZM18.7186 4.47227L10.2403 12.6785L7.32168 12.991C6.47579 13.0816 5.75581 12.391 5.84944 11.566L6.1723 8.74102L14.6506 0.534766C15.3899 -0.180859 16.5845 -0.180859 17.3206 0.534766L18.7154 1.88477C19.4547 2.60039 19.4547 3.75977 18.7186 4.47227ZM15.5288 5.43789L13.6529 3.62227L7.65422 9.43164L7.41854 11.4723L9.52681 11.2441L15.5288 5.43789ZM17.6209 2.94727L16.2261 1.59727C16.0938 1.46914 15.8774 1.46914 15.7483 1.59727L14.7507 2.56289L16.6265 4.37852L17.6241 3.41289C17.7533 3.28164 17.7533 3.07539 17.6209 2.94727Z" fill="#767676"/>
</svg>
