<svg width="15" height="16" viewBox="0 0 15 16" fill="none" xmlns="http://www.w3.org/2000/svg">
<path d="M9.18854 13H9.9634C10.0662 13 10.1647 12.9605 10.2374 12.8902C10.31 12.8198 10.3508 12.7245 10.3508 12.625V5.875C10.3508 5.77554 10.31 5.68016 10.2374 5.60984C10.1647 5.53951 10.0662 5.5 9.9634 5.5H9.18854C9.08579 5.5 8.98725 5.53951 8.91459 5.60984C8.84193 5.68016 8.80111 5.77554 8.80111 5.875V12.625C8.80111 12.7245 8.84193 12.8198 8.91459 12.8902C8.98725 12.9605 9.08579 13 9.18854 13ZM14.4834 2.5H11.8228L10.725 0.728125C10.5873 0.505942 10.3924 0.322091 10.1594 0.194487C9.92639 0.066882 9.66321 -0.000123231 9.3955 1.70139e-07H6.14043C5.87283 -1.5274e-05 5.60978 0.0670412 5.3769 0.194641C5.14402 0.32224 4.94925 0.506033 4.81154 0.728125L3.71318 2.5H1.05249C0.91549 2.5 0.784097 2.55268 0.68722 2.64645C0.590344 2.74022 0.535919 2.86739 0.535919 3L0.535919 3.5C0.535919 3.63261 0.590344 3.75979 0.68722 3.85355C0.784097 3.94732 0.91549 4 1.05249 4H1.56907V14.5C1.56907 14.8978 1.73234 15.2794 2.02297 15.5607C2.3136 15.842 2.70778 16 3.11879 16H12.4171C12.8281 16 13.2223 15.842 13.513 15.5607C13.8036 15.2794 13.9669 14.8978 13.9669 14.5V4H14.4834C14.6204 4 14.7518 3.94732 14.8487 3.85355C14.9456 3.75979 15 3.63261 15 3.5V3C15 2.86739 14.9456 2.74022 14.8487 2.64645C14.7518 2.55268 14.6204 2.5 14.4834 2.5ZM6.08393 1.59094C6.10119 1.56312 6.12562 1.54012 6.15482 1.52418C6.18403 1.50824 6.217 1.49991 6.25053 1.5H9.2854C9.31887 1.49996 9.35178 1.50832 9.38092 1.52426C9.41006 1.54019 9.43444 1.56317 9.45167 1.59094L10.0154 2.5H5.52054L6.08393 1.59094ZM12.4171 14.5H3.11879V4H12.4171V14.5ZM5.57252 13H6.34738C6.45014 13 6.54868 12.9605 6.62134 12.8902C6.69399 12.8198 6.73481 12.7245 6.73481 12.625V5.875C6.73481 5.77554 6.69399 5.68016 6.62134 5.60984C6.54868 5.53951 6.45014 5.5 6.34738 5.5H5.57252C5.46977 5.5 5.37122 5.53951 5.29857 5.60984C5.22591 5.68016 5.18509 5.77554 5.18509 5.875V12.625C5.18509 12.7245 5.22591 12.8198 5.29857 12.8902C5.37122 12.9605 5.46977 13 5.57252 13Z" fill="#767676"/>
</svg>
